<svg xmlns="http://www.w3.org/2000/svg" fill="none" viewBox="0 0 15 16" height="16" width="15">
<path stroke-width="1.33333" stroke="#A5A5A8" d="M7.5 14.5664C6.64641 14.5664 5.80117 14.3983 5.01256 14.0716C4.22394 13.745 3.50739 13.2662 2.90381 12.6626C2.30023 12.059 1.82144 11.3425 1.49478 10.5538C1.16813 9.76523 1 8.92 1 8.06641C1 7.21281 1.16813 6.36758 1.49478 5.57896C1.82144 4.79035 2.30023 4.07379 2.90381 3.47021C3.50739 2.86663 4.22394 2.38784 5.01256 2.06119C5.80117 1.73453 6.64641 1.56641 7.5 1.56641C9.22391 1.56641 10.8772 2.25123 12.0962 3.47021C13.3152 4.6892 14 6.3425 14 8.06641C14 9.79031 13.3152 11.4436 12.0962 12.6626C10.8772 13.8816 9.22391 14.5664 7.5 14.5664ZM7.5 14.5664V7.13783C7.5 6.64529 7.69566 6.17292 8.04394 5.82464C8.39223 5.47635 8.8646 5.28069 9.35714 5.28069H9.82143M5.17857 8.99498H9.82143"></path>
</svg>
