<svg xmlns="http://www.w3.org/2000/svg" fill="none" viewBox="0 0 13 14" height="14" width="13">
<path fill="#A5A5A8" d="M9.971 2.81541C9.81673 2.81541 9.66593 2.86115 9.53765 2.94686C9.40938 3.03257 9.30941 3.15439 9.25037 3.29691C9.19134 3.43944 9.17589 3.59627 9.20599 3.74758C9.23608 3.89888 9.31037 4.03786 9.41946 4.14695C9.52854 4.25603 9.66753 4.33032 9.81883 4.36042C9.97014 4.39052 10.127 4.37507 10.2695 4.31603C10.412 4.257 10.5338 4.15702 10.6195 4.02875C10.7053 3.90048 10.751 3.74968 10.751 3.59541C10.751 3.38854 10.6688 3.19014 10.5225 3.04386C10.3763 2.89758 10.1779 2.81541 9.971 2.81541ZM12.961 4.38841C12.9484 3.8491 12.8474 3.31552 12.662 2.80891C12.4967 2.37544 12.2395 1.98294 11.908 1.65841C11.5861 1.32523 11.1927 1.06962 10.7575 0.910906C10.2522 0.719911 9.71805 0.616593 9.178 0.605406C8.489 0.566406 8.268 0.566406 6.5 0.566406C4.732 0.566406 4.511 0.566406 3.822 0.605406C3.28195 0.616593 2.74777 0.719911 2.2425 0.910906C1.80809 1.07123 1.41501 1.32662 1.092 1.65841C0.758827 1.98027 0.503215 2.37369 0.3445 2.80891C0.153505 3.31418 0.0501865 3.84836 0.039 4.38841C-3.72529e-08 5.07741 0 5.29841 0 7.06641C0 8.83441 -3.72529e-08 9.05541 0.039 9.74441C0.0501865 10.2845 0.153505 10.8186 0.3445 11.3239C0.503215 11.7591 0.758827 12.1525 1.092 12.4744C1.41501 12.8062 1.80809 13.0616 2.2425 13.2219C2.74777 13.4129 3.28195 13.5162 3.822 13.5274C4.511 13.5664 4.732 13.5664 6.5 13.5664C8.268 13.5664 8.489 13.5664 9.178 13.5274C9.71805 13.5162 10.2522 13.4129 10.7575 13.2219C11.1927 13.0632 11.5861 12.8076 11.908 12.4744C12.241 12.1511 12.4984 11.7582 12.662 11.3239C12.8474 10.8173 12.9484 10.2837 12.961 9.74441C12.961 9.05541 13 8.83441 13 7.06641C13 5.29841 13 5.07741 12.961 4.38841ZM11.791 9.66641C11.7863 10.079 11.7115 10.4878 11.57 10.8754C11.4662 11.1583 11.2995 11.4139 11.0825 11.6229C10.8717 11.8377 10.6166 12.0041 10.335 12.1104C9.94741 12.2519 9.5386 12.3267 9.126 12.3314C8.476 12.3639 8.2355 12.3704 6.526 12.3704C4.8165 12.3704 4.576 12.3704 3.926 12.3314C3.49758 12.3394 3.07099 12.2735 2.665 12.1364C2.39576 12.0247 2.15238 11.8587 1.95 11.6489C1.73426 11.4401 1.56965 11.1843 1.469 10.9014C1.31031 10.5083 1.22229 10.0902 1.209 9.66641C1.209 9.01641 1.17 8.77591 1.17 7.06641C1.17 5.35691 1.17 5.11641 1.209 4.46641C1.21191 4.04459 1.28892 3.62657 1.4365 3.23141C1.55093 2.95705 1.72657 2.71248 1.95 2.51641C2.14748 2.29292 2.39154 2.11542 2.665 1.99641C3.06121 1.85343 3.4788 1.77871 3.9 1.77541C4.55 1.77541 4.7905 1.73641 6.5 1.73641C8.2095 1.73641 8.45 1.73641 9.1 1.77541C9.5126 1.78014 9.92141 1.85487 10.309 1.99641C10.6044 2.10603 10.8695 2.28426 11.0825 2.51641C11.2955 2.71607 11.4619 2.96018 11.57 3.23141C11.7145 3.62721 11.7892 4.04506 11.791 4.46641C11.8235 5.11641 11.83 5.35691 11.83 7.06641C11.83 8.77591 11.8235 9.01641 11.791 9.66641ZM6.5 3.73191C5.84078 3.73319 5.19673 3.92985 4.64923 4.29703C4.10173 4.66421 3.67535 5.18543 3.42396 5.79485C3.17258 6.40426 3.10747 7.07451 3.23687 7.72091C3.36626 8.36731 3.68435 8.96086 4.15095 9.42654C4.61755 9.89223 5.21171 10.2092 5.85836 10.3373C6.50501 10.4654 7.17513 10.399 7.78405 10.1465C8.39298 9.89389 8.91337 9.46649 9.27948 8.91828C9.6456 8.37006 9.841 7.72563 9.841 7.06641C9.84186 6.62772 9.75598 6.1932 9.58831 5.78783C9.42063 5.38246 9.17446 5.01423 8.86397 4.70434C8.55347 4.39445 8.18477 4.149 7.77907 3.98211C7.37337 3.81522 6.93868 3.73019 6.5 3.73191ZM6.5 9.23091C6.0719 9.23091 5.65342 9.10396 5.29747 8.86612C4.94152 8.62828 4.66409 8.29024 4.50026 7.89472C4.33644 7.49921 4.29357 7.06401 4.37709 6.64413C4.46061 6.22426 4.66676 5.83858 4.96947 5.53587C5.27218 5.23316 5.65786 5.02701 6.07773 4.9435C6.4976 4.85998 6.93281 4.90284 7.32832 5.06667C7.72383 5.23049 8.06188 5.50792 8.29972 5.86387C8.53755 6.21982 8.6645 6.63831 8.6645 7.06641C8.6645 7.35065 8.60851 7.63212 8.49974 7.89472C8.39096 8.15733 8.23153 8.39595 8.03053 8.59694C7.82954 8.79793 7.59093 8.95737 7.32832 9.06614C7.06571 9.17492 6.78425 9.23091 6.5 9.23091Z"></path>
</svg>
