<svg xmlns="http://www.w3.org/2000/svg" fill="none" viewBox="0 0 14 13" height="13" width="14">
<path fill="#A5A5A8" d="M6.25 5.875L1.25 2.75V9H7.5V10.25H1.25C0.906251 10.25 0.611876 10.1275 0.366876 9.8825C0.121876 9.6375 -0.000415605 9.34333 1.06112e-06 9V1.5C1.06112e-06 1.15625 0.122501 0.861876 0.367501 0.616876C0.612501 0.371876 0.906668 0.249584 1.25 0.250001H11.25C11.5938 0.250001 11.8881 0.372501 12.1331 0.617501C12.3781 0.862501 12.5004 1.15667 12.5 1.5V4.625H11.25V2.75L6.25 5.875ZM6.25 4.625L11.25 1.5H1.25L6.25 4.625ZM11.25 12.75C10.5625 12.75 9.97396 12.5052 9.48438 12.0156C8.99479 11.526 8.75 10.9375 8.75 10.25V7.4375C8.75 7 8.90104 6.63021 9.20313 6.32813C9.50521 6.02604 9.875 5.875 10.3125 5.875C10.75 5.875 11.1198 6.02604 11.4219 6.32813C11.724 6.63021 11.875 7 11.875 7.4375V10.25H10.625V7.4375C10.625 7.35417 10.5938 7.28125 10.5312 7.21875C10.4688 7.15625 10.3958 7.125 10.3125 7.125C10.2292 7.125 10.1562 7.15625 10.0938 7.21875C10.0312 7.28125 10 7.35417 10 7.4375V10.25C10 10.5938 10.1225 10.8881 10.3675 11.1331C10.6125 11.3781 10.9067 11.5004 11.25 11.5C11.5938 11.5 11.8881 11.3775 12.1331 11.1325C12.3781 10.8875 12.5004 10.5933 12.5 10.25V7.75H13.75V10.25C13.75 10.9375 13.5052 11.526 13.0156 12.0156C12.526 12.5052 11.9375 12.75 11.25 12.75ZM1.25 2.75V1.5V9V2.75Z"></path>
</svg>
