<svg xmlns="http://www.w3.org/2000/svg" fill="none" viewBox="0 0 14 14" height="14" width="14">
<path stroke-miterlimit="10" stroke-width="1.25" stroke="#A5A5A8" d="M12.6254 10.2191C12.1674 9.75756 11.0579 9.08398 10.5196 8.81253C9.81865 8.45945 9.76096 8.4306 9.20998 8.83994C8.84247 9.11312 8.59814 9.35716 8.16803 9.26543C7.73793 9.1737 6.80329 8.65647 5.9849 7.84068C5.16652 7.02489 4.61929 6.06314 4.52727 5.63448C4.43525 5.20581 4.68333 4.96436 4.95392 4.59599C5.33527 4.07675 5.30642 3.9902 4.98045 3.28923C4.72631 2.74402 4.03312 1.64496 3.56984 1.18917C3.07425 0.699644 3.07425 0.786184 2.75492 0.91888C2.49494 1.02826 2.24553 1.16123 2.00981 1.3161C1.54826 1.62274 1.2921 1.87746 1.11296 2.26026C0.933817 2.64306 0.853335 3.54048 1.77845 5.2211C2.70357 6.90172 3.35263 7.76107 4.69602 9.10071C6.03942 10.4404 7.07243 11.1607 8.58256 12.0076C10.4507 13.0539 11.1672 12.8499 11.5512 12.6711C11.9351 12.4922 12.191 12.2384 12.4982 11.7768C12.6535 11.5415 12.7868 11.2924 12.8963 11.0326C13.0293 10.7144 13.1158 10.7144 12.6254 10.2191Z"></path>
</svg>
