<svg xmlns="http://www.w3.org/2000/svg" fill="none" viewBox="0 0 13 14" height="14" width="13">
<path fill="#A5A5A8" d="M11.1055 2.65104C10.5066 2.04607 9.79323 1.5664 9.007 1.24002C8.22076 0.913639 7.37741 0.747073 6.52613 0.750039C2.9593 0.750039 0.0522614 3.65707 0.0522614 7.22391C0.0522614 8.36712 0.352764 9.47768 0.914573 10.4576L0 13.8154L3.42965 12.9139C4.37688 13.4299 5.44171 13.7043 6.52613 13.7043C10.093 13.7043 13 10.7973 13 7.23044C13 5.49928 12.3271 3.87265 11.1055 2.65104ZM6.52613 12.6068C5.5593 12.6068 4.61206 12.3455 3.78241 11.8556L3.58643 11.738L1.54824 12.2737L2.09045 10.2877L1.9598 10.0852C1.42265 9.22746 1.13743 8.23598 1.13668 7.22391C1.13668 4.25808 3.55377 1.84099 6.5196 1.84099C7.95678 1.84099 9.30904 2.4028 10.3216 3.4219C10.823 3.92097 11.2203 4.51459 11.4906 5.16836C11.7608 5.82212 11.8986 6.52302 11.896 7.23044C11.909 10.1963 9.49196 12.6068 6.52613 12.6068ZM9.47889 8.5827C9.31558 8.50431 8.51859 8.11235 8.37487 8.05356C8.22462 8.00129 8.1201 7.97516 8.00904 8.13195C7.89799 8.29526 7.59095 8.66109 7.4995 8.76562C7.40804 8.87667 7.31005 8.88974 7.14673 8.80481C6.98342 8.72642 6.4608 8.55004 5.84673 8.0013C5.36332 7.57014 5.04322 7.04099 4.94523 6.87768C4.85377 6.71436 4.93216 6.62944 5.01708 6.54451C5.08894 6.47265 5.1804 6.35506 5.25879 6.26361C5.33719 6.17215 5.36985 6.10029 5.42211 5.99577C5.47437 5.88471 5.44824 5.79325 5.40904 5.71486C5.36985 5.63647 5.04322 4.83949 4.91256 4.51285C4.78191 4.19929 4.64472 4.23848 4.54673 4.23195H4.23317C4.12211 4.23195 3.95226 4.27114 3.80201 4.43446C3.65829 4.59778 3.2402 4.98974 3.2402 5.78672C3.2402 6.58371 3.82161 7.35456 3.9 7.45908C3.97839 7.57014 5.04322 9.2033 6.66332 9.9023C7.04874 10.0721 7.34925 10.1701 7.58442 10.242C7.96985 10.3661 8.32261 10.3465 8.60352 10.3073C8.91708 10.2616 9.56382 9.91537 9.69447 9.53647C9.83166 9.15758 9.83166 8.83748 9.78593 8.76562C9.7402 8.69376 9.64221 8.66109 9.47889 8.5827Z"></path>
</svg>
