<svg xmlns="http://www.w3.org/2000/svg" fill="none" viewBox="0 0 17 14" height="14" width="17">
<path fill="#A5A5A8" d="M10.1776 7.06641L10.4877 7.60906C10.6824 7.49778 10.8026 7.29069 10.8026 7.06641C10.8026 6.84212 10.6824 6.63503 10.4877 6.52375L10.1776 7.06641ZM7.46634 8.6157H6.84134C6.84134 8.8385 6.95994 9.04444 7.15264 9.15627C7.34534 9.2681 7.58299 9.26889 7.77643 9.15835L7.46634 8.6157ZM7.46634 5.51711L7.77643 4.97446C7.58299 4.86392 7.34533 4.86471 7.15264 4.97654C6.95994 5.08837 6.84134 5.29432 6.84134 5.51711H7.46634ZM1.58289 2.43246L1.13474 1.99682L1.13474 1.99682L1.58289 2.43246ZM5.59789 1.61676L5.58031 0.992006L5.58014 0.99201L5.59789 1.61676ZM11.6587 1.61676L11.6765 0.99201L11.6763 0.992005L11.6587 1.61676ZM15.673 2.43246L15.2246 2.86786L15.225 2.86835L15.673 2.43246ZM15.6737 11.7003L16.1217 12.1362L16.1221 12.1357L15.6737 11.7003ZM11.6587 12.5153L11.6412 11.8905L11.6407 11.8905L11.6587 12.5153ZM8.62831 12.5664L8.62644 13.1914H8.62831V12.5664ZM5.59789 12.5153L5.6171 11.8906L5.61542 11.8905L5.59789 12.5153ZM1.58289 11.7003L1.1345 12.1357L1.13474 12.136L1.58289 11.7003ZM9.86752 6.52375L7.15626 8.07305L7.77643 9.15835L10.4877 7.60906L9.86752 6.52375ZM8.09134 8.6157V5.51711H6.84134V8.6157H8.09134ZM7.15626 6.05976L9.86752 7.60906L10.4877 6.52375L7.77643 4.97446L7.15626 6.05976ZM1.50684 7.61408V6.51795H0.256836V7.61408H1.50684ZM1.50684 6.51795C1.50684 5.37909 1.50816 4.58761 1.58888 3.98807C1.66701 3.40772 1.80975 3.09576 2.03105 2.8681L1.13474 1.99682C0.65498 2.49036 0.447186 3.09985 0.350056 3.82129C0.255509 4.52355 0.256836 5.41421 0.256836 6.51795H1.50684ZM2.03104 2.86811C2.25413 2.63862 2.55962 2.48792 3.12736 2.39403C3.71554 2.29675 4.4936 2.27338 5.61564 2.24151L5.58014 0.99201C4.49366 1.02288 3.61514 1.04638 2.92341 1.16078C2.21124 1.27856 1.61348 1.50434 1.13474 1.99682L2.03104 2.86811ZM5.61548 2.24151C6.65848 2.21215 7.72098 2.19141 8.62831 2.19141V0.941406C7.70438 0.941406 6.62886 0.962491 5.58031 0.992006L5.61548 2.24151ZM8.62831 2.19141C9.53487 2.19141 10.5974 2.21215 11.6412 2.24151L11.6763 0.992005C10.627 0.962491 9.55147 0.941406 8.62831 0.941406V2.19141ZM11.641 2.24151C12.763 2.27338 13.5411 2.29675 14.1292 2.39402C14.6968 2.48792 15.0019 2.63859 15.2246 2.86786L16.1214 1.99706C15.6429 1.50437 15.0452 1.27856 14.3331 1.16078C13.6415 1.04638 12.763 1.02288 11.6765 0.99201L11.641 2.24151ZM15.225 2.86835C15.4466 3.09599 15.5894 3.40804 15.6677 3.98844C15.7485 4.58803 15.7498 5.37947 15.7498 6.51795H16.9998C16.9998 5.41461 17.0011 4.5239 16.9065 3.8215C16.8092 3.09991 16.6012 2.49014 16.1209 1.99658L15.225 2.86835ZM15.7498 6.51795V7.61408H16.9998V6.51795H15.7498ZM15.7498 7.61408C15.7498 8.75333 15.7485 9.54482 15.6677 10.1444C15.5896 10.7246 15.4469 11.0368 15.2253 11.2649L16.1221 12.1357C16.6016 11.6419 16.8094 11.0327 16.9066 10.3111C17.0011 9.60887 16.9998 8.71821 16.9998 7.61408H15.7498ZM15.2258 11.2645C15.0026 11.4938 14.6971 11.6445 14.1295 11.7384C13.5416 11.8357 12.7635 11.859 11.6412 11.8905L11.6763 13.14C12.7633 13.1095 13.6418 13.0861 14.3335 12.9716C15.0457 12.8539 15.643 12.6281 16.1217 12.1362L15.2258 11.2645ZM11.6407 11.8905C10.598 11.9207 9.5356 11.9414 8.62831 11.9414V13.1914C9.55229 13.1914 10.6279 13.1703 11.6768 13.14L11.6407 11.8905ZM8.63019 11.9414C7.62564 11.9384 6.62118 11.9214 5.6171 11.8906L5.57869 13.14C6.59432 13.1712 7.61033 13.1884 8.62644 13.1914L8.63019 11.9414ZM5.61542 11.8905C4.49343 11.859 3.71539 11.8358 3.12727 11.7387C2.55959 11.6449 2.25412 11.4942 2.03104 11.2647L1.13474 12.136C1.61349 12.6285 2.21127 12.8543 2.9235 12.972C3.61529 13.0863 4.49383 13.1095 5.58036 13.14L5.61542 11.8905ZM2.03128 11.2649C1.80981 11.0369 1.66703 10.7244 1.58888 10.1438C1.50816 9.54405 1.50684 8.75254 1.50684 7.61408H0.256836C0.256836 8.71746 0.25551 9.60809 0.350053 10.3105C0.447172 11.0321 0.654919 11.6419 1.1345 12.1357L2.03128 11.2649Z"></path>
</svg>
