<svg xmlns="http://www.w3.org/2000/svg" fill="none" viewBox="0 0 18 13" height="13" width="18">
<path fill="#1D1D25" d="M10.6649 6.58203L10.975 7.12468C11.1697 7.01341 11.2899 6.80632 11.2899 6.58203C11.2899 6.35774 11.1697 6.15066 10.975 6.03938L10.6649 6.58203ZM7.95365 8.13133H7.32865C7.32865 8.35412 7.44725 8.56007 7.63994 8.6719C7.83264 8.78372 8.07029 8.78451 8.26373 8.67398L7.95365 8.13133ZM7.95365 5.03273L8.26373 4.49008C8.07029 4.37955 7.83264 4.38034 7.63994 4.49217C7.44725 4.60399 7.32865 4.80994 7.32865 5.03273H7.95365ZM2.0702 1.94809L1.62205 1.51244L1.62204 1.51245L2.0702 1.94809ZM6.0852 1.13238L6.06761 0.507631L6.06745 0.507635L6.0852 1.13238ZM12.146 1.13238L12.1638 0.507635L12.1636 0.50763L12.146 1.13238ZM16.1603 1.94809L15.7119 2.38349L15.7124 2.38397L16.1603 1.94809ZM16.161 11.216L16.609 11.6519L16.6094 11.6514L16.161 11.216ZM12.146 12.0309L12.1285 11.4061L12.128 11.4062L12.146 12.0309ZM9.11562 12.082L9.11374 12.707H9.11562V12.082ZM6.0852 12.0309L6.1044 11.4062L6.10273 11.4061L6.0852 12.0309ZM2.0702 11.216L1.62181 11.6514L1.62205 11.6516L2.0702 11.216ZM10.3548 6.03938L7.64356 7.58867L8.26373 8.67398L10.975 7.12468L10.3548 6.03938ZM8.57865 8.13133V5.03273H7.32865V8.13133H8.57865ZM7.64356 5.57539L10.3548 7.12468L10.975 6.03938L8.26373 4.49008L7.64356 5.57539ZM1.99414 7.12971V6.03358H0.744141V7.12971H1.99414ZM1.99414 6.03358C1.99414 4.89472 1.99547 4.10323 2.07618 3.5037C2.15432 2.92334 2.29705 2.61138 2.51835 2.38373L1.62204 1.51245C1.14228 2.00599 0.934491 2.61547 0.837361 3.33691C0.742814 4.03917 0.744141 4.92984 0.744141 6.03358H1.99414ZM2.51835 2.38373C2.74144 2.15424 3.04692 2.00354 3.61467 1.90965C4.20285 1.81238 4.9809 1.78901 6.10295 1.75713L6.06745 0.507635C4.98097 0.538504 4.10244 0.562003 3.41071 0.676402C2.69854 0.79418 2.10079 1.01996 1.62205 1.51244L2.51835 2.38373ZM6.10278 1.75714C7.14578 1.72778 8.20828 1.70703 9.11562 1.70703V0.457031C8.19169 0.457031 7.11616 0.478116 6.06761 0.507631L6.10278 1.75714ZM9.11562 1.70703C10.0222 1.70703 11.0847 1.72778 12.1285 1.75714L12.1636 0.50763C11.1143 0.478116 10.0388 0.457031 9.11562 0.457031V1.70703ZM12.1283 1.75713C13.2503 1.78901 14.0284 1.81238 14.6165 1.90965C15.1841 2.00354 15.4892 2.15421 15.7119 2.38349L16.6087 1.51269C16.1302 1.01999 15.5325 0.794183 14.8204 0.676404C14.1288 0.562003 13.2503 0.538503 12.1638 0.507635L12.1283 1.75713ZM15.7124 2.38397C15.9339 2.61161 16.0768 2.92366 16.155 3.50407C16.2358 4.10365 16.2371 4.8951 16.2371 6.03358H17.4871C17.4871 4.93023 17.4884 4.03953 17.3938 3.33712C17.2965 2.61554 17.0885 2.00576 16.6082 1.5122L15.7124 2.38397ZM16.2371 6.03358V7.12971H17.4871V6.03358H16.2371ZM16.2371 7.12971C16.2371 8.26896 16.2358 9.06044 16.1551 9.65998C16.0769 10.2402 15.9342 10.5524 15.7127 10.7806L16.6094 11.6514C17.0889 11.1576 17.2967 10.5483 17.3939 9.82676C17.4884 9.1245 17.4871 8.23383 17.4871 7.12971H16.2371ZM15.7131 10.7801C15.4899 11.0094 15.1844 11.1601 14.6168 11.254C14.0289 11.3513 13.2508 11.3747 12.1285 11.4061L12.1636 12.6557C13.2506 12.6252 14.1291 12.6017 14.8208 12.4873C15.533 12.3695 16.1303 12.1437 16.609 11.6519L15.7131 10.7801ZM12.128 11.4062C11.0853 11.4363 10.0229 11.457 9.11562 11.457V12.707C10.0396 12.707 11.1152 12.6859 12.1641 12.6556L12.128 11.4062ZM9.1175 11.457C8.11295 11.454 7.10848 11.4371 6.1044 11.4062L6.06599 12.6556C7.08162 12.6868 8.09764 12.704 9.11374 12.707L9.1175 11.457ZM6.10273 11.4061C4.98073 11.3747 4.2027 11.3515 3.61457 11.2543C3.04689 11.1605 2.74143 11.0098 2.51835 10.7803L1.62205 11.6516C2.1008 12.1441 2.69857 12.3699 3.4108 12.4876C4.10259 12.6019 4.98114 12.6252 6.06767 12.6557L6.10273 11.4061ZM2.51859 10.7806C2.29711 10.5525 2.15433 10.24 2.07619 9.65942C1.99547 9.05967 1.99414 8.26816 1.99414 7.12971H0.744141C0.744141 8.23308 0.742815 9.12372 0.837358 9.82616C0.934477 10.5477 1.14222 11.1575 1.62181 11.6514L2.51859 10.7806Z"></path>
</svg>
