<svg xmlns="http://www.w3.org/2000/svg" fill="none" viewBox="0 0 15 15" height="15" width="15">
<path stroke-width="1.33333" stroke="#77777C" d="M7.43066 14.082C6.57707 14.082 5.73184 13.9139 4.94322 13.5872C4.15461 13.2606 3.43805 12.7818 2.83447 12.1782C2.23089 11.5746 1.7521 10.8581 1.42545 10.0695C1.09879 9.28086 0.930664 8.43562 0.930664 7.58203C0.930664 6.72844 1.09879 5.88321 1.42545 5.09459C1.7521 4.30597 2.23089 3.58942 2.83447 2.98584C3.43805 2.38226 4.15461 1.90347 4.94322 1.57681C5.73184 1.25016 6.57707 1.08203 7.43066 1.08203C9.15457 1.08203 10.8079 1.76685 12.0269 2.98584C13.2458 4.20482 13.9307 5.85812 13.9307 7.58203C13.9307 9.30594 13.2458 10.9592 12.0269 12.1782C10.8079 13.3972 9.15457 14.082 7.43066 14.082ZM7.43066 14.082V6.65346C7.43066 6.16091 7.62633 5.68854 7.97461 5.34026C8.32289 4.99198 8.79526 4.79632 9.28781 4.79632H9.75209M5.10924 8.5106H9.75209"></path>
</svg>
