<svg xmlns="http://www.w3.org/2000/svg" fill="none" viewBox="0 0 14 14" height="14" width="14">
<path fill="#77777C" d="M10.9017 2.33103C10.7474 2.33103 10.5966 2.37678 10.4683 2.46249C10.34 2.54819 10.2401 2.67001 10.181 2.81254C10.122 2.95506 10.1066 3.1119 10.1367 3.2632C10.1667 3.41451 10.241 3.55349 10.3501 3.66257C10.4592 3.77166 10.5982 3.84595 10.7495 3.87604C10.9008 3.90614 11.0576 3.89069 11.2002 3.83166C11.3427 3.77262 11.4645 3.67265 11.5502 3.54438C11.6359 3.41611 11.6817 3.2653 11.6817 3.11103C11.6817 2.90416 11.5995 2.70577 11.4532 2.55949C11.3069 2.41321 11.1085 2.33103 10.9017 2.33103ZM13.8917 3.90403C13.879 3.36473 13.778 2.83114 13.5927 2.32453C13.4274 1.89107 13.1702 1.49856 12.8387 1.17403C12.5168 0.840858 12.1234 0.585246 11.6882 0.426531C11.1829 0.235536 10.6487 0.132218 10.1087 0.121031C9.41966 0.0820312 9.19866 0.0820312 7.43066 0.0820312C5.66266 0.0820312 5.44166 0.0820312 4.75266 0.121031C4.21261 0.132218 3.67844 0.235536 3.17316 0.426531C2.73875 0.586853 2.34567 0.842246 2.02266 1.17403C1.68949 1.4959 1.43388 1.88932 1.27516 2.32453C1.08417 2.8298 0.980851 3.36398 0.969664 3.90403C0.930664 4.59303 0.930664 4.81403 0.930664 6.58203C0.930664 8.35003 0.930664 8.57103 0.969664 9.26003C0.980851 9.80008 1.08417 10.3343 1.27516 10.8395C1.43388 11.2747 1.68949 11.6682 2.02266 11.99C2.34567 12.3218 2.73875 12.5772 3.17316 12.7375C3.67844 12.9285 4.21261 13.0318 4.75266 13.043C5.44166 13.082 5.66266 13.082 7.43066 13.082C9.19866 13.082 9.41966 13.082 10.1087 13.043C10.6487 13.0318 11.1829 12.9285 11.6882 12.7375C12.1234 12.5788 12.5168 12.3232 12.8387 11.99C13.1716 11.6667 13.4291 11.2739 13.5927 10.8395C13.778 10.3329 13.879 9.79934 13.8917 9.26003C13.8917 8.57103 13.9307 8.35003 13.9307 6.58203C13.9307 4.81403 13.9307 4.59303 13.8917 3.90403ZM12.7217 9.18203C12.7169 9.59463 12.6422 10.0034 12.5007 10.391C12.3969 10.6739 12.2302 10.9295 12.0132 11.1385C11.8023 11.3534 11.5473 11.5197 11.2657 11.626C10.8781 11.7676 10.4693 11.8423 10.0567 11.847C9.40667 11.8795 9.16616 11.886 7.45666 11.886C5.74716 11.886 5.50666 11.886 4.85666 11.847C4.42824 11.8551 4.00165 11.7891 3.59566 11.652C3.32642 11.5403 3.08305 11.3743 2.88066 11.1645C2.66492 10.9557 2.50031 10.6999 2.39966 10.417C2.24097 10.0239 2.15295 9.60579 2.13966 9.18203C2.13966 8.53203 2.10066 8.29153 2.10066 6.58203C2.10066 4.87253 2.10066 4.63203 2.13966 3.98203C2.14258 3.56022 2.21958 3.1422 2.36716 2.74703C2.48159 2.47267 2.65724 2.22811 2.88066 2.03203C3.07814 1.80854 3.3222 1.63104 3.59566 1.51203C3.99187 1.36906 4.40946 1.29433 4.83066 1.29103C5.48066 1.29103 5.72116 1.25203 7.43066 1.25203C9.14016 1.25203 9.38066 1.25203 10.0307 1.29103C10.4433 1.29576 10.8521 1.37049 11.2397 1.51203C11.535 1.62166 11.8002 1.79988 12.0132 2.03203C12.2262 2.2317 12.3926 2.47581 12.5007 2.74703C12.6451 3.14284 12.7199 3.56069 12.7217 3.98203C12.7542 4.63203 12.7607 4.87253 12.7607 6.58203C12.7607 8.29153 12.7542 8.53203 12.7217 9.18203ZM7.43066 3.24753C6.77144 3.24882 6.12739 3.44547 5.57989 3.81265C5.03239 4.17983 4.60601 4.70106 4.35463 5.31047C4.10324 5.91988 4.03813 6.59013 4.16753 7.23654C4.29693 7.88294 4.61502 8.47648 5.08161 8.94217C5.54821 9.40786 6.14237 9.72479 6.78902 9.85293C7.43567 9.98106 8.1058 9.91465 8.71472 9.66208C9.32364 9.40951 9.84404 8.98212 10.2101 8.4339C10.5763 7.88569 10.7717 7.24126 10.7717 6.58203C10.7725 6.14335 10.6866 5.70883 10.519 5.30345C10.3513 4.89808 10.1051 4.52986 9.79463 4.21996C9.48413 3.91007 9.11543 3.66462 8.70973 3.49774C8.30403 3.33085 7.86934 3.24582 7.43066 3.24753ZM7.43066 8.74653C7.00257 8.74653 6.58408 8.61959 6.22813 8.38175C5.87218 8.14391 5.59475 7.80586 5.43093 7.41035C5.2671 7.01484 5.22424 6.57963 5.30775 6.15976C5.39127 5.73989 5.59742 5.35421 5.90013 5.0515C6.20284 4.74879 6.58852 4.54264 7.00839 4.45912C7.42826 4.3756 7.86347 4.41847 8.25898 4.58229C8.65449 4.74612 8.99254 5.02355 9.23038 5.3795C9.46822 5.73545 9.59516 6.15393 9.59516 6.58203C9.59516 6.86628 9.53918 7.14774 9.4304 7.41035C9.32162 7.67296 9.16219 7.91157 8.9612 8.11256C8.7602 8.31356 8.52159 8.47299 8.25898 8.58177C7.99637 8.69054 7.71491 8.74653 7.43066 8.74653Z"></path>
</svg>
