<svg xmlns="http://www.w3.org/2000/svg" fill="none" viewBox="0 0 14 15" height="15" width="14">
<path stroke-miterlimit="10" stroke-width="1.25" stroke="#1D1D25" d="M12.5561 10.9858C12.098 10.5242 10.9886 9.85064 10.4503 9.5792C9.74931 9.22611 9.69162 9.19726 9.14064 9.6066C8.77314 9.87978 8.5288 10.1238 8.0987 10.0321C7.66859 9.94036 6.73395 9.42313 5.91557 8.60734C5.09718 7.79156 4.54996 6.8298 4.45793 6.40114C4.36591 5.97247 4.614 5.73103 4.88458 5.36265C5.26593 4.84341 5.23709 4.75687 4.91112 4.05589C4.65698 3.51068 3.96379 2.41162 3.50051 1.95584C3.00492 1.46631 3.00492 1.55285 2.68558 1.68554C2.42561 1.79493 2.17619 1.92789 1.94047 2.08276C1.47892 2.38941 1.22276 2.64412 1.04362 3.02692C0.864481 3.40972 0.783999 4.30714 1.70912 5.98776C2.63424 7.66838 3.28329 8.52773 4.62669 9.86738C5.97009 11.207 7.00309 11.9273 8.51323 12.7743C10.3813 13.8205 11.0979 13.6166 11.4819 13.4378C11.8658 13.2589 12.1217 13.005 12.4289 12.5435C12.5842 12.3082 12.7174 12.059 12.827 11.7993C12.96 11.4811 13.0465 11.4811 12.5561 10.9858Z"></path>
</svg>
