<svg xmlns="http://www.w3.org/2000/svg" fill="none" viewBox="0 0 14 14" height="14" width="14">
<path fill="#1D1D25" d="M12.0362 2.48308C11.4373 1.8781 10.7239 1.39844 9.93766 1.07205C9.15143 0.74567 8.30808 0.579105 7.45679 0.58207C3.88996 0.58207 0.982925 3.4891 0.982925 7.05594C0.982925 8.19915 1.28343 9.30971 1.84524 10.2896L0.930664 13.6474L4.36031 12.7459C5.30755 13.262 6.37237 13.5363 7.45679 13.5363C11.0236 13.5363 13.9307 10.6293 13.9307 7.06247C13.9307 5.33132 13.2578 3.70468 12.0362 2.48308ZM7.45679 12.4389C6.48996 12.4389 5.54272 12.1775 4.71308 11.6876L4.5171 11.57L2.47891 12.1057L3.02112 10.1198L2.89046 9.91725C2.35331 9.05949 2.06809 8.06801 2.06735 7.05594C2.06735 4.09011 4.48443 1.67302 7.45026 1.67302C8.88745 1.67302 10.2397 2.23483 11.2523 3.25393C11.7536 3.753 12.151 4.34662 12.4212 5.00039C12.6915 5.65415 12.8293 6.35506 12.8266 7.06247C12.8397 10.0283 10.4226 12.4389 7.45679 12.4389ZM10.4096 8.41473C10.2462 8.33634 9.44926 7.94438 9.30554 7.88559C9.15529 7.83333 9.05076 7.80719 8.93971 7.96398C8.82865 8.1273 8.52162 8.49312 8.43016 8.59765C8.3387 8.7087 8.24071 8.72177 8.0774 8.63684C7.91408 8.55845 7.39147 8.38207 6.7774 7.83333C6.29398 7.40217 5.97388 6.87302 5.87589 6.70971C5.78443 6.54639 5.86282 6.46147 5.94775 6.37654C6.01961 6.30468 6.11107 6.18709 6.18946 6.09564C6.26785 6.00418 6.30051 5.93232 6.35277 5.8278C6.40504 5.71674 6.3789 5.62529 6.33971 5.54689C6.30051 5.4685 5.97388 4.67152 5.84323 4.34488C5.71257 4.03132 5.57539 4.07051 5.4774 4.06398H5.16383C5.05277 4.06398 4.88292 4.10318 4.73267 4.26649C4.58896 4.42981 4.17086 4.82177 4.17086 5.61875C4.17086 6.41574 4.75227 7.18659 4.83066 7.29112C4.90906 7.40217 5.97388 9.03534 7.59398 9.73433C7.97941 9.90418 8.27991 10.0022 8.51509 10.074C8.90051 10.1982 9.25328 10.1786 9.53418 10.1394C9.84775 10.0936 10.4945 9.7474 10.6251 9.3685C10.7623 8.98961 10.7623 8.66951 10.7166 8.59765C10.6709 8.52579 10.5729 8.49312 10.4096 8.41473Z"></path>
</svg>
