<svg xmlns="http://www.w3.org/2000/svg" fill="none" viewBox="0 0 15 14" height="14" width="15">
<path fill="#77777C" d="M7.18066 6.27344L2.18067 3.14844V9.39844H8.43066V10.6484H2.18067C1.83692 10.6484 1.54254 10.5259 1.29754 10.2809C1.05254 10.0359 0.930248 9.74177 0.930665 9.39844V1.89844C0.930665 1.55469 1.05317 1.26031 1.29817 1.01531C1.54317 0.770313 1.83733 0.648022 2.18067 0.648439H12.1807C12.5244 0.648439 12.8188 0.770939 13.0638 1.01594C13.3088 1.26094 13.4311 1.55511 13.4307 1.89844V5.02344H12.1807V3.14844L7.18066 6.27344ZM7.18066 5.02344L12.1807 1.89844H2.18067L7.18066 5.02344ZM12.1807 13.1484C11.4932 13.1484 10.9046 12.9036 10.415 12.4141C9.92546 11.9245 9.68066 11.3359 9.68066 10.6484V7.83594C9.68066 7.39844 9.83171 7.02865 10.1338 6.72656C10.4359 6.42448 10.8057 6.27344 11.2432 6.27344C11.6807 6.27344 12.0505 6.42448 12.3525 6.72656C12.6546 7.02865 12.8057 7.39844 12.8057 7.83594V10.6484H11.5557V7.83594C11.5557 7.7526 11.5244 7.67969 11.4619 7.61719C11.3994 7.55469 11.3265 7.52344 11.2432 7.52344C11.1598 7.52344 11.0869 7.55469 11.0244 7.61719C10.9619 7.67969 10.9307 7.7526 10.9307 7.83594V10.6484C10.9307 10.9922 11.0532 11.2866 11.2982 11.5316C11.5432 11.7766 11.8373 11.8989 12.1807 11.8984C12.5244 11.8984 12.8188 11.7759 13.0638 11.5309C13.3088 11.2859 13.4311 10.9918 13.4307 10.6484V8.14844H14.6807V10.6484C14.6807 11.3359 14.4359 11.9245 13.9463 12.4141C13.4567 12.9036 12.8682 13.1484 12.1807 13.1484ZM2.18067 3.14844V1.89844V9.39844V3.14844Z"></path>
</svg>
