<svg width="26" height="26" viewBox="0 0 26 26" fill="none" xmlns="http://www.w3.org/2000/svg">
<path d="M24.0769 7C22.0262 3 18.4354 1 13.3077 1C5.61538 1 1 4.33333 1 13C1 21.6667 6.38462 25 13.3077 25C20.2308 25 24.0769 21 24.0769 18.3333C24.0769 15.6667 22.5385 11.6667 13.3077 11.6667C9.46154 11.6667 8.69231 13.3333 8.69231 15C8.69231 17 10.2308 18.3333 12.5385 18.3333C16.3846 18.3333 17.9231 16.3333 17.9231 11.6667C17.9231 7 14.8462 6.33333 13.3077 6.33333C11.7692 6.33333 10.4877 6.77733 9.46154 7.66667" stroke="#1B1B1E" stroke-width="2" stroke-linecap="round" stroke-linejoin="round"/>
</svg>
