<svg width="24" height="24" viewBox="0 0 24 24" fill="none" xmlns="http://www.w3.org/2000/svg">
<path fill-rule="evenodd" clip-rule="evenodd" d="M22 12C22 17.5228 17.5228 22 12 22C10.4724 22 9.0248 21.6575 7.72982 21.045L3.3745 21.7709C2.69951 21.8834 2.11347 21.3 2.22299 20.6245L2.93562 16.229C2.33532 14.9446 2 13.5114 2 12C2 6.47715 6.47715 2 12 2C17.5228 2 22 6.47715 22 12ZM16 14.6749V15.1111C16 15.602 15.602 16 15.1111 16C11.1837 16 7.99997 12.8162 7.99997 8.88889C7.99997 8.39797 8.39794 8 8.88886 8H9.32506C9.8669 8 10.3541 8.32988 10.5554 8.83296L10.742 9.29949C10.9506 9.82105 10.7246 10.4155 10.2222 10.6667C10.2222 10.6667 10.4444 11.7778 11.3333 12.6667C12.2222 13.5556 13.3333 13.7778 13.3333 13.7778C13.5845 13.2753 14.1789 13.0494 14.7005 13.258L15.167 13.4446C15.6701 13.6458 16 14.1331 16 14.6749Z" fill="#28303F"/>
</svg>
